<svg xmlns="http://www.w3.org/2000/svg" fill="none" viewBox="0 0 172 28" height="28" width="172">
<path fill="#505EE2" d="M50.8907 13.2248H39.7519C41.4026 7.69347 49.332 7.62141 50.8907 13.2248ZM44.7575 24.3676C48.8676 24.5971 53.0578 22.1804 54.463 18.2691H50.1554C47.2489 22.4246 40.9503 21.1795 39.7092 16.3114L39.7866 16.1673H55.0235C56.2312 7.0983 45.0337 1.96329 38.4895 8.14452C32.331 13.9628 36.5385 23.9058 44.7575 24.3676Z"></path>
<path fill="#505EE2" d="M60.4787 23.8035C60.5228 20.2939 60.384 16.7709 60.5575 13.2679C60.9044 10.8445 63.0102 9.03368 65.4523 9.02167V5.44798C60.843 5.35323 56.8877 9.02834 56.5527 13.6069L56.5554 23.8035H60.4787Z"></path>
<path fill="#505EE2" d="M15.3399 13.2248H4.20113C5.85186 7.69347 13.7812 7.62141 15.3399 13.2248ZM9.20669 24.3676C13.3168 24.5971 17.507 22.1804 18.9122 18.2691H14.6046C11.6981 22.4246 5.39947 21.1795 4.15843 16.3114L4.23582 16.1673H19.4727C20.6804 7.0983 9.48293 1.96329 2.93873 8.14452C-3.21981 13.9628 0.987744 23.9058 9.20669 24.3676Z"></path>
<path fill="#505EE2" d="M32.7355 5.45968L27.4817 17.7594L22.2613 5.45968H18.0938L26.3487 23.8659H28.7935L37.0084 5.45968H32.7355Z"></path>
<path fill="#505EE2" d="M71.6281 27.5381H76.0278L85.2276 5.43673H80.9893L75.8396 17.3828L70.8647 5.43673H66.5918L73.8526 22.0681L71.6281 27.5381Z"></path>
<path fill="#505EE2" d="M100.173 8.40473C95.4144 2.73593 86.1973 5.82388 85.6328 13.1327L85.6355 23.8191H89.5588L89.6309 12.9953C90.162 9.16137 94.7232 7.54266 97.2253 10.724C97.5989 11.2004 98.1768 12.4762 98.1768 13.0647V23.8191H102.169V13.0647C102.169 12.4762 102.747 11.2004 103.121 10.724C105.626 7.54 110.175 9.16003 110.717 12.9953L110.787 23.8191H114.711L114.713 13.1327C114.149 5.82521 104.933 2.7346 100.173 8.40473Z"></path>
<path fill="#505EE2" d="M125.564 20.7723C122.342 20.7723 119.729 18.1594 119.729 14.9367C119.729 11.7139 122.342 9.10105 125.564 9.10105C128.787 9.10105 131.4 11.7139 131.4 14.9367C131.4 18.1594 128.787 20.7723 125.564 20.7723ZM134.149 10.6303C132.569 7.48902 129.32 5.3312 125.564 5.3312C120.26 5.3312 115.959 9.63217 115.959 14.9367C115.959 20.2411 120.26 24.5408 125.564 24.5408C130.044 24.5408 133.807 21.4742 134.868 17.3253C134.084 16.1937 133.63 14.8633 133.581 13.5208C133.542 12.5026 133.739 11.5204 134.149 10.6303Z"></path>
<path fill="#505EE2" d="M168.008 7.7759C164.705 4.35834 158.195 4.60255 155.191 8.44179C155.259 8.47115 155.329 8.49651 155.397 8.52853C156.57 9.077 157.492 9.87234 158.122 10.8558C159.184 9.7549 160.673 9.06899 162.324 9.06899C165.549 9.06899 168.165 11.6832 168.165 14.9099C168.165 18.1353 165.549 20.7509 162.324 20.7509C160.44 20.7509 158.765 19.8568 157.696 18.4716C157.69 18.4796 157.683 18.4903 157.675 18.4983C157.172 19.1108 156.535 19.6286 155.82 20.0276C155.861 20.6054 155.857 21.2606 155.761 21.9385C159.231 24.9611 164.743 25.5069 168.217 21.717V23.8188H172V-1.14441e-05H168.008V7.7759Z"></path>
<path fill="#505EE2" d="M149.492 16.61C149.798 17.2985 150.032 19.1775 148.557 19.6912C147.598 20.0649 146.527 19.5418 145.965 18.7384C145.602 19.367 144.82 19.7006 144.111 19.6365C143.256 19.5565 142.543 18.8465 142.41 18.0058C142.261 17.3079 142.641 16.5099 142.909 16.1709C142.152 15.8934 141.561 15.0046 141.604 14.1799C141.641 12.8962 142.96 12.2169 144.127 12.5385C144.129 12.5385 144.13 12.5385 144.131 12.5399C144.131 12.5399 144.131 12.5399 144.133 12.5399C144.134 12.5399 144.135 12.5412 144.135 12.5412C144.293 11.4629 145.1 10.4074 146.251 10.354C147.741 10.2446 148.719 11.4082 148.623 12.8521C149.707 12.8027 151.136 13.2031 151.269 14.4642C151.431 15.7746 150.588 16.5032 149.492 16.61ZM156.737 13.6234C156.451 10.9318 153.403 10.0778 151.092 10.1819C151.296 7.10326 149.209 4.62116 146.029 4.85336C143.575 4.96812 141.852 7.21936 141.517 9.51864C141.517 9.51864 141.513 9.5173 141.511 9.51597C141.509 9.51597 141.509 9.51597 141.508 9.51464C141.507 9.51464 141.504 9.51464 141.503 9.51464C141.501 9.5133 141.5 9.5133 141.499 9.5133C139.008 8.82739 136.197 10.2766 136.118 13.0149C136.026 14.7751 137.287 16.67 138.902 17.2625C138.328 17.9871 137.517 19.6899 137.835 21.1778C138.122 22.97 139.641 24.4846 141.465 24.6568C142.977 24.7929 144.647 24.083 145.421 22.7391C146.618 24.4539 148.903 25.5695 150.948 24.7729C154.099 23.6773 153.595 19.6686 152.944 18.1993C155.282 17.9711 157.081 16.4165 156.737 13.6234Z"></path>
</svg>
